Coordinates
version=1
nRows=28
nColumns=21
inDegrees=yes

Units are S.I. units (second, meters, Newtons, ...)
If the header above contains a line with 'inDegrees', this indicates whether rotational values are in degrees (yes) or radians (no).

endheader
time	sternoclavicular_r2	sternoclavicular_r3	unrotscap_r3	unrotscap_r2	acromioclavicular_r2	acromioclavicular_r3	acromioclavicular_r1	unrothum_r1	unrothum_r3	unrothum_r2	elv_angle	shoulder_elev	shoulder1_r2	shoulder_rot	elbow_flexion	pro_sup	deviation	flexion	wrist_hand_r1	wrist_hand_r3
      2.01005025	    -15.40151637	      6.52335542	     -6.52335542	     15.40151637	     -3.11849377	     25.20256974	     11.32838165	    -11.32838165	    -25.20256974	      3.11849377	    129.99940230	     63.64248700	   -129.99940230	     19.99848018	      0.00288732	      0.00000000	      0.00000000	     -0.00000000	     -0.00000000	      0.00000000
      2.03015075	    -15.46622944	      6.55076483	     -6.55076483	     15.46622944	     -3.13159685	     25.30846422	     11.37598049	    -11.37598049	    -25.30846422	      3.13159685	    129.99940751	     63.90989578	   -129.99940751	     19.99837913	      0.00286722	      0.00000000	      0.00000000	     -0.00000000	     -0.00000000	      0.00000000
      2.05025126	    -15.53111951	      6.57824919	     -6.57824919	     15.53111951	     -3.14473577	     25.41464834	     11.42370952	    -11.42370952	    -25.41464834	      3.14473577	    129.99941265	     64.17803594	   -129.99941265	     19.99826015	      0.00284736	      0.00000000	      0.00000000	     -0.00000000	     -0.00000000	      0.00000000
      2.07035176	    -15.59616041	      6.60579745	     -6.60579745	     15.59616041	     -3.15790523	     25.52107928	     11.47154950	    -11.47154950	    -25.52107928	      3.15790523	    129.99941770	     64.44679941	   -129.99941770	     19.99815187	      0.00282777	      0.00000000	      0.00000000	     -0.00000000	     -0.00000000	      0.00000000
      2.09045226	    -15.66132303	      6.63339726	     -6.63339726	     15.66132303	     -3.17109934	     25.62770939	     11.51947899	    -11.51947899	    -25.62770939	      3.17109934	    129.99942268	     64.71606580	   -129.99942268	     19.99804924	      0.00280845	      0.00000000	      0.00000000	     -0.00000000	     -0.00000000	      0.00000000
      2.11055276	    -15.72657485	      6.66103485	     -6.66103485	     15.72657485	     -3.18431150	     25.73448548	     11.56747411	    -11.56747411	    -25.73448548	      3.18431150	    129.99942758	     64.98570085	   -129.99942758	     19.99793276	      0.00278939	      0.00000000	      0.00000000	     -0.00000000	     -0.00000000	      0.00000000
      2.13065327	    -15.79189274	      6.68870043	     -6.68870043	     15.79189274	     -3.19753705	     25.84136968	     11.61551782	    -11.61551782	    -25.84136968	      3.19753705	    129.99943239	     65.25560889	   -129.99943239	     19.99783726	      0.00277060	      0.00000000	      0.00000000	     -0.00000000	     -0.00000000	      0.00000000
      2.15075377	    -15.85724360	      6.71637997	     -6.71637997	     15.85724360	     -3.21076927	     25.94830781	     11.66358578	    -11.66358578	    -25.94830781	      3.21076927	    129.99943713	     65.52565312	   -129.99943713	     19.99774513	      0.00275210	      0.00000000	      0.00000000	     -0.00000000	     -0.00000000	      0.00000000
      2.17085427	    -15.92259703	      6.74406060	     -6.74406060	     15.92259703	     -3.22400201	     26.05525017	     11.71165563	    -11.71165563	    -26.05525017	      3.22400201	    129.99944179	     65.79570804	   -129.99944179	     19.99764932	      0.00273387	      0.00000000	      0.00000000	     -0.00000000	     -0.00000000	      0.00000000
      2.19095477	    -15.98792537	      6.77173060	     -6.77173060	     15.98792537	     -3.23722967	     26.16215146	     11.75970703	    -11.75970703	    -26.16215146	      3.23722967	    129.99944636	     66.06565923	   -129.99944636	     19.99756238	      0.00271592	      0.00000000	      0.00000000	     -0.00000000	     -0.00000000	      0.00000000
      2.21105528	    -16.05319806	      6.79937703	     -6.79937703	     16.05319806	     -3.25044606	     26.26896169	     11.80771749	    -11.80771749	    -26.26896169	      3.25044606	    129.99945086	     66.33538050	   -129.99945086	     19.99747763	      0.00269826	      0.00000000	      0.00000000	     -0.00000000	     -0.00000000	      0.00000000
      2.23115578	    -16.11838585	      6.82698750	     -6.82698750	     16.11838585	     -3.26364526	     26.37563299	     11.85566551	    -11.85566551	    -26.37563299	      3.26364526	    129.99945527	     66.60475091	   -129.99945527	     19.99740388	      0.00268088	      0.00000000	      0.00000000	     -0.00000000	     -0.00000000	      0.00000000
      2.25125628	    -16.18345900	      6.85454942	     -6.85454942	     16.18345900	     -3.27682125	     26.48211671	     11.90352920	    -11.90352920	    -26.48211671	      3.27682125	    129.99945960	     66.87364764	   -129.99945960	     19.99732286	      0.00266377	      0.00000000	      0.00000000	     -0.00000000	     -0.00000000	      0.00000000
      2.27135678	    -16.24838768	      6.88205014	     -6.88205014	     16.24838768	     -3.28996799	     26.58836401	     11.95128664	    -11.95128664	    -26.58836401	      3.28996799	    129.99946385	     67.14194738	   -129.99946385	     19.99725207	      0.00264695	      0.00000000	      0.00000000	     -0.00000000	     -0.00000000	      0.00000000
      2.29145729	    -16.31314155	      6.90947682	     -6.90947682	     16.31314155	     -3.30307933	     26.69432526	     11.99891549	    -11.99891549	    -26.69432526	      3.30307933	    129.99946803	     67.40952473	   -129.99946803	     19.99718741	      0.00263041	      0.00000000	      0.00000000	     -0.00000000	     -0.00000000	      0.00000000
      2.31155779	    -16.37769296	      6.93681775	     -6.93681775	     16.37769296	     -3.31614968	     26.79995521	     12.04639542	    -12.04639542	    -26.79995521	      3.31614968	    129.99947212	     67.67626550	   -129.99947212	     19.99711952	      0.00261413	      0.00000000	      0.00000000	     -0.00000000	     -0.00000000	      0.00000000
      2.33165829	    -16.44200663	      6.96405799	     -6.96405799	     16.44200663	     -3.32917189	     26.90519614	     12.09370050	    -12.09370050	    -26.90519614	      3.32917189	    129.99947613	     67.94202390	   -129.99947613	     19.99704746	      0.00259814	      0.00000000	      0.00000000	     -0.00000000	     -0.00000000	      0.00000000
      2.35175879	    -16.50607152	      6.99119285	     -6.99119285	     16.50607152	     -3.34214372	     27.01002996	     12.14082258	    -12.14082258	    -27.01002996	      3.34214372	    129.99948006	     68.20675425	   -129.99948006	     19.99696095	      0.00258232	      0.00000000	      0.00000000	     -0.00000000	     -0.00000000	      0.00000000
      2.37185930	    -16.56984153	      7.01820282	     -7.01820282	     16.56984153	     -3.35505585	     27.11438124	     12.18772776	    -12.18772776	    -27.11438124	      3.35505585	    129.99948392	     68.47026607	   -129.99948392	     19.99687669	      0.00256677	      0.00000000	      0.00000000	     -0.00000000	     -0.00000000	      0.00000000
      2.39195980	    -16.63331853	      7.04508868	     -7.04508868	     16.63331853	     -3.36790865	     27.21825306	     12.23441743	    -12.23441743	    -27.21825306	      3.36790865	    129.99948766	     68.73256715	   -129.99948766	     19.99730034	      0.00255254	      0.00000000	      0.00000000	     -0.00000000	     -0.00000000	      0.00000000
      2.41206030	    -16.69639753	      7.07180597	     -7.07180597	     16.69639753	     -3.38068087	     27.32147361	     12.28081435	    -12.28081435	    -27.32147361	      3.38068087	    129.99949137	     68.99322359	   -129.99949137	     19.99714933	      0.00253738	      0.00000000	      0.00000000	     -0.00000000	     -0.00000000	      0.00000000
      2.43216080	    -16.75909399	      7.09836123	     -7.09836123	     16.75909399	     -3.39337563	     27.42406818	     12.32692991	    -12.32692991	    -27.42406818	      3.39337563	    129.99949499	     69.25229930	   -129.99949499	     19.99699179	      0.00252249	      0.00000000	      0.00000000	     -0.00000000	     -0.00000000	      0.00000000
      2.45226131	    -16.82138088	      7.12474301	     -7.12474301	     16.82138088	     -3.40598745	     27.52599253	     12.37274420	    -12.37274420	    -27.52599253	      3.40598745	    129.99949854	     69.50968253	   -129.99949854	     19.99685971	      0.00250791	      0.00000000	      0.00000000	     -0.00000000	     -0.00000000	      0.00000000
      2.47236181	    -16.88322695	      7.15093809	     -7.15093809	     16.88322695	     -3.41851003	     27.62719556	     12.41823427	    -12.41823427	    -27.62719556	      3.41851003	    129.99950201	     69.76524427	   -129.99950201	     19.99672952	      0.00249361	      0.00000000	      0.00000000	     -0.00000000	     -0.00000000	      0.00000000
      2.49246231	    -16.94460365	      7.17693437	     -7.17693437	     16.94460365	     -3.43093756	     27.72763050	     12.46337908	    -12.46337908	    -27.72763050	      3.43093756	    129.99950541	     70.01886642	   -129.99950541	     19.99662081	      0.00247962	      0.00000000	      0.00000000	     -0.00000000	     -0.00000000	      0.00000000
      2.51256281	    -17.00540969	      7.20268893	     -7.20268893	     17.00540969	     -3.44324955	     27.82713164	     12.50810416	    -12.50810416	    -27.82713164	      3.44324955	    129.99950800	     70.27013047	   -129.99950800	     19.99939071	      0.00246724	      0.00000000	      0.00000000	     -0.00000000	     -0.00000000	      0.00000000
      2.53266332	    -17.06576774	      7.22825375	     -7.22825375	     17.06576774	     -3.45547082	     27.92589970	     12.55249972	    -12.55249972	    -27.92589970	      3.45547082	    129.99951153	     70.51954333	   -129.99951153	     19.99903787	      0.00245339	      0.00000000	      0.00000000	     -0.00000000	     -0.00000000	      0.00000000
      2.55276382	    -17.12556963	      7.25358301	     -7.25358301	     17.12556963	     -3.46757949	     28.02375769	     12.59648622	    -12.59648622	    -28.02375769	      3.46757949	    129.99951501	     70.76665804	   -129.99951501	     19.99869595	      0.00243966	      0.00000000	      0.00000000	     -0.00000000	     -0.00000000	      0.00000000
